<?xml version="1.0" encoding="UTF-8"?>
<!DOCTYPE svg PUBLIC "-//W3C//DTD SVG 1.1//EN" "http://www.w3.org/Graphics/SVG/1.1/DTD/svg11.dtd">
<svg xmlns="http://www.w3.org/2000/svg" version="1.1" width="744px" height="174px" style="shape-rendering:geometricPrecision; text-rendering:geometricPrecision; image-rendering:optimizeQuality; fill-rule:evenodd; clip-rule:evenodd" xmlns:xlink="http://www.w3.org/1999/xlink">
<g><path style="opacity:0.004" fill="#000000" d="M 496.5,1.5 C 497.833,2.16667 497.833,2.16667 496.5,1.5 Z"/></g>
<g><path style="opacity:0.997" fill="#848484" d="M 462.5,12.5 C 470.456,9.84814 478.456,7.18148 486.5,4.5C 489.468,3.83838 492.468,3.50505 495.5,3.5C 495.5,58.5 495.5,113.5 495.5,168.5C 484.585,168.82 473.752,168.487 463,167.5C 462.5,115.834 462.333,64.1677 462.5,12.5 Z"/></g>
<g><path style="opacity:0.959" fill="#454545" d="M -0.5,6.5 C 11.747,6.17818 23.9136,6.51151 36,7.5C 44.5581,37.8592 53.8915,68.1926 64,98.5C 64.6667,97.8333 65.3333,97.1667 66,96.5C 70.1193,82.675 73.7859,68.675 77,54.5C 80.8568,39.1541 85.1902,23.4874 90,7.5C 100.752,6.51299 111.585,6.17966 122.5,6.5C 131.549,38.4142 140.383,69.7475 149,100.5C 155.683,81.0607 161.349,61.394 166,41.5C 169.911,32.081 173.245,21.7477 176,10.5C 176.915,9.67209 177.581,8.67209 178,7.5C 190.086,6.51151 202.253,6.17818 214.5,6.5C 197.804,60.2708 180.804,114.271 163.5,168.5C 153.167,168.5 142.833,168.5 132.5,168.5C 129.823,156.41 126.99,145.077 124,134.5C 123.667,134.833 123.333,135.167 123,135.5C 122.934,131.749 122.101,128.249 120.5,125C 121.435,122.969 120.935,121.136 119,119.5C 115.529,103.645 111.529,87.9786 107,72.5C 97.877,104.727 88.7103,136.727 79.5,168.5C 69.1667,168.5 58.8333,168.5 48.5,168.5C 33.9585,116.874 17.6251,65.8737 -0.5,15.5C -0.5,12.5 -0.5,9.5 -0.5,6.5 Z"/></g>
<g><path style="opacity:0.994" fill="#a3a3a3" d="M 659.5,3.5 C 661.5,3.5 663.5,3.5 665.5,3.5C 665.5,20.8333 665.5,38.1667 665.5,55.5C 699.953,48.0375 723.286,60.7042 735.5,93.5C 736.5,118.491 736.833,143.491 736.5,168.5C 725.48,168.832 714.48,168.499 703.5,167.5C 702.167,145.5 702.167,123.5 703.5,101.5C 697.363,87.8005 687.363,83.8005 673.5,89.5C 670.817,92.0159 668.317,94.6826 666,97.5C 665.5,121.164 665.333,144.831 665.5,168.5C 653.919,168.821 642.419,168.488 631,167.5C 630.333,116.167 630.333,64.8333 631,13.5C 638.987,10.5037 646.987,7.50372 655,4.5C 656.755,5.61284 658.255,5.27951 659.5,3.5 Z"/></g>
<g><path style="opacity:0.004" fill="#fefffe" d="M 462.5,12.5 C 461.833,11.1667 461.833,11.1667 462.5,12.5 Z"/></g>
<g><path style="opacity:0.004" fill="#000000" d="M 170.5,21.5 C 171.833,22.1667 171.833,22.1667 170.5,21.5 Z"/></g>
<g><path style="opacity:0.004" fill="#000000" d="M 402.5,48.5 C 403.833,49.1667 403.833,49.1667 402.5,48.5 Z"/></g>
<g><path style="opacity:0.934" fill="#646464" d="M 352.5,50.5 C 368.902,49.1695 385.402,49.1695 402,50.5C 402.82,62.0762 402.654,73.5762 401.5,85C 386.925,85.8231 372.425,85.6564 358,84.5C 355.035,86.6745 354.869,89.0078 357.5,91.5C 385.919,90.0072 402.252,103.174 406.5,131C 404.494,149.989 394.494,162.323 376.5,168C 357.17,168.5 337.836,168.667 318.5,168.5C 318.5,156.833 318.5,145.167 318.5,133.5C 335.846,133.833 353.179,133.5 370.5,132.5C 371.347,130.939 371.014,129.439 369.5,128C 365.167,127.667 360.833,127.333 356.5,127C 356,126.5 355.5,126 355,125.5C 352.936,126.591 350.769,126.758 348.5,126C 334.047,120.883 324.88,110.383 321,94.5C 319.82,70.6278 330.32,55.9612 352.5,50.5 Z"/></g>
<g><path style="opacity:0.921" fill="#747474" d="M 414.5,167.5 C 414.333,131.832 414.5,96.1651 415,60.5C 415.513,59.4734 416.013,58.4734 416.5,57.5C 426.222,54.87 435.722,51.5367 445,47.5C 445.772,47.6448 446.439,47.9781 447,48.5C 447.667,88.1667 447.667,127.833 447,167.5C 436.069,168.829 425.235,168.829 414.5,167.5 Z"/></g>
<g><path style="opacity:0.004" fill="#000000" d="M 312.5,50.5 C 313.833,51.1667 313.833,51.1667 312.5,50.5 Z"/></g>
<g><path style="opacity:0.938" fill="#555555" d="M 312.5,51.5 C 312.5,90.5 312.5,129.5 312.5,168.5C 301.5,168.5 290.5,168.5 279.5,168.5C 279.66,166.801 279.494,165.134 279,163.5C 276.683,165.486 274.016,166.819 271,167.5C 242.751,173.119 220.751,164.786 205,142.5C 192.374,118.307 193.874,94.9732 209.5,72.5C 227.376,53.1074 249.043,47.1074 274.5,54.5C 276.193,55.2283 277.693,56.2283 279,57.5C 279.495,55.5273 279.662,53.5273 279.5,51.5C 290.5,51.5 301.5,51.5 312.5,51.5 Z M 247.5,84.5 C 261.434,82.7176 271.934,88.0509 279,100.5C 282.736,113.317 279.236,123.984 268.5,132.5C 267.914,132.291 267.414,131.957 267,131.5C 263.78,134.333 259.947,135.666 255.5,135.5C 246.904,135.375 240.071,132.375 235,126.5C 227.987,112.359 229.153,100.359 238.5,90.5C 241.561,88.4106 244.561,86.4106 247.5,84.5 Z"/></g>
<g><path style="opacity:0.932" fill="#949494" d="M 549.5,51.5 C 557.86,51.1688 566.193,51.5021 574.5,52.5C 577.724,53.3258 580.891,54.3258 584,55.5C 586.304,55.6824 586.804,55.0157 585.5,53.5C 586.025,52.8076 586.692,52.3076 587.5,52C 598.495,51.5002 609.495,51.3335 620.5,51.5C 620.5,90.5 620.5,129.5 620.5,168.5C 609.167,168.5 597.833,168.5 586.5,168.5C 586.688,166.897 586.188,165.563 585,164.5C 577.766,167.879 570.1,169.212 562,168.5C 535.426,167.884 516.926,154.884 506.5,129.5C 498.668,91.0987 513.001,65.0987 549.5,51.5 Z M 582.5,126.5 C 573.477,136.391 562.144,138.224 548.5,132C 531.947,116.28 532.614,101.446 550.5,87.5C 552.894,86.6509 555.227,85.6509 557.5,84.5C 579.255,84.9201 588.922,95.9201 586.5,117.5C 585.901,120.955 584.568,123.955 582.5,126.5 Z"/></g>
<g><path style="opacity:0.004" fill="#000000" d="M 541.5,52.5 C 542.833,53.1667 542.833,53.1667 541.5,52.5 Z"/></g>
<g><path style="opacity:0.075" fill="#5d5d5d" d="M 416.5,57.5 C 416.013,58.4734 415.513,59.4734 415,60.5C 414.5,96.1651 414.333,131.832 414.5,167.5C 413.336,131.669 413.169,95.669 414,59.5C 414.417,58.244 415.25,57.5774 416.5,57.5 Z"/></g>
<g><path style="opacity:0.004" fill="#000000" d="M 402.5,85.5 C 403.833,86.1667 403.833,86.1667 402.5,85.5 Z"/></g>
<g><path style="opacity:0.004" fill="#000000" d="M 357.5,87.5 C 358.833,88.1667 358.833,88.1667 357.5,87.5 Z"/></g>
<g><path style="opacity:0.004" fill="#000000" d="M 390.5,97.5 C 391.833,98.1667 391.833,98.1667 390.5,97.5 Z"/></g>
<g><path style="opacity:0.004" fill="#000000" d="M 398.5,105.5 C 399.833,106.167 399.833,106.167 398.5,105.5 Z"/></g>
<g><path style="opacity:0.004" fill="#000000" d="M 326.5,112.5 C 327.833,113.167 327.833,113.167 326.5,112.5 Z"/></g>
<g><path style="opacity:0.004" fill="#000000" d="M 334.5,120.5 C 335.833,121.167 335.833,121.167 334.5,120.5 Z"/></g>
<g><path style="opacity:0.004" fill="#000000" d="M 402.5,149.5 C 403.833,150.167 403.833,150.167 402.5,149.5 Z"/></g>
<g><path style="opacity:0.004" fill="#000000" d="M 398.5,155.5 C 399.833,156.167 399.833,156.167 398.5,155.5 Z"/></g>
<g><path style="opacity:0.004" fill="#000000" d="M 396.5,157.5 C 397.833,158.167 397.833,158.167 396.5,157.5 Z"/></g>
<g><path style="opacity:0.004" fill="#000000" d="M 394.5,159.5 C 395.833,160.167 395.833,160.167 394.5,159.5 Z"/></g>
<g><path style="opacity:0.004" fill="#000000" d="M 392.5,161.5 C 393.833,162.167 393.833,162.167 392.5,161.5 Z"/></g>
</svg>
